<svg width="24" height="23" viewBox="0 0 24 23" fill="none" xmlns="http://www.w3.org/2000/svg">
<path d="M1.98752 10C1.15909 10 0.487518 10.6716 0.487518 11.5C0.487518 12.3284 1.15909 13 1.98752 13V10ZM23.0732 12.5607C23.6589 11.9749 23.6589 11.0251 23.0732 10.4393L13.5272 0.893398C12.9414 0.307612 11.9917 0.307612 11.4059 0.893398C10.8201 1.47918 10.8201 2.42893 11.4059 3.01472L19.8912 11.5L11.4059 19.9853C10.8201 20.5711 10.8201 21.5208 11.4059 22.1066C11.9917 22.6924 12.9414 22.6924 13.5272 22.1066L23.0732 12.5607ZM1.98752 13H22.0125V10H1.98752V13Z" fill="#0A0B0C"/>
</svg>
