<svg width="59" height="30" viewBox="0 0 59 30" fill="none" xmlns="http://www.w3.org/2000/svg">
<path d="M21 13C19.8954 13 19 13.8954 19 15C19 16.1046 19.8954 17 21 17L21 13ZM58.4142 16.4142C59.1953 15.6332 59.1953 14.3668 58.4142 13.5858L45.6863 0.857867C44.9052 0.0768177 43.6389 0.0768176 42.8579 0.857866C42.0768 1.63891 42.0768 2.90524 42.8579 3.68629L54.1716 15L42.8579 26.3137C42.0768 27.0948 42.0768 28.3611 42.8579 29.1421C43.6389 29.9232 44.9052 29.9232 45.6863 29.1421L58.4142 16.4142ZM21 17L57 17L57 13L21 13L21 17Z" fill="white"/>
<circle cx="14.75" cy="15" r="2" fill="white"/>
<circle cx="8.75" cy="15" r="2" fill="white"/>
<circle cx="2.75" cy="15" r="2" fill="white"/>
</svg>
