<svg width="48" height="34" viewBox="0 0 48 34" fill="none" xmlns="http://www.w3.org/2000/svg">
<path d="M7.27695 3.48617H40.7238V25.1403H44.0427V3.48617C44.0427 1.65289 42.557 0.166855 40.7238 0.166855H7.27695C5.44376 0.166855 3.95801 1.65289 3.95801 3.48617V25.1403H7.27695V3.48617Z" fill="white"/>
<path d="M0.161063 27.5232H0.015H0V28.1666C0 30.9019 2.21709 33.1189 4.95225 33.1189H43.0474C45.7826 33.1189 48 30.9019 48 28.1666V27.5232H0.161063ZM21 30.6243V30.0178C21 29.7977 21.1787 29.619 21.3988 29.619H26.6009C26.8213 29.619 27.0001 29.7977 27.0001 30.0178V30.6243C27.0001 30.8447 26.8214 31.0231 26.6009 31.0231H21.3988C21.1787 31.0231 21 30.8447 21 30.6243Z" fill="white"/>
<path d="M32.3368 9.11117C32.3368 9.02913 32.2705 8.96248 32.1885 8.96248H15.8123C15.7302 8.96248 15.6636 9.02913 15.6636 9.11117V9.49573C15.6636 9.54842 15.6878 9.59829 15.7287 9.63092C18.2413 11.6351 20.7535 13.6332 23.2595 15.6375C23.4602 15.7968 23.6956 15.873 23.9311 15.873C23.9545 15.873 23.9772 15.8686 24.0003 15.8672C24.0234 15.8686 24.046 15.873 24.0691 15.873C24.3049 15.873 24.54 15.7968 24.7407 15.6375C27.2467 13.6333 29.7589 11.6352 32.2715 9.63092C32.3125 9.59829 32.3366 9.54851 32.3366 9.49573V9.11117H32.3368Z" fill="white"/>
<path d="M25.9047 17.2579C25.3506 17.701 24.6441 17.95 23.9312 17.95C23.2248 17.95 22.5253 17.7079 21.9646 17.2649L19.4857 15.2843L15.8236 12.3652C15.7592 12.3137 15.6636 12.3598 15.6636 12.4422V20.4051C15.6636 20.6479 15.8607 20.8445 16.103 20.8445H31.8974C32.1402 20.8445 32.3368 20.6479 32.3368 20.4051V12.3046C32.3368 12.2218 32.2413 12.176 32.1768 12.2277L25.9047 17.2579Z" fill="white"/>
</svg>
