<svg width="48" height="34" viewBox="0 0 48 34" fill="none" xmlns="http://www.w3.org/2000/svg">
<path d="M2.48184 21.6516H8.32725H29.4357H29.4855V6.72997C29.4855 6.30303 29.8323 5.95766 30.2593 5.95766H41.7323C42.7148 5.95766 43.597 6.55719 43.9582 7.46947L48 17.6724V21.6516V27.4044V27.9069C48 28.7246 47.3379 29.3871 46.5198 29.3871H46.0192H42.6112C42.4449 28.5898 42.1028 27.8567 41.6258 27.2287C41.3478 26.8632 41.0229 26.5317 40.66 26.2476C39.7419 25.5239 38.5851 25.0925 37.3279 25.0925C36.0703 25.0925 34.9119 25.5258 33.9936 26.2476C33.6328 26.5332 33.3077 26.8632 33.03 27.2287C32.5528 27.8567 32.2104 28.5898 32.0442 29.3871H29.4855H18.6812C18.6581 29.2765 18.6281 29.1685 18.5985 29.0605C18.5747 28.9752 18.5494 28.8909 18.5219 28.8074C18.4512 28.5931 18.3681 28.3848 18.2725 28.1833C18.2374 28.1094 18.2007 28.0369 18.1623 27.9651C18.0586 27.7703 17.944 27.5828 17.818 27.403C17.7665 27.3293 17.7126 27.2573 17.6577 27.1865C17.5317 27.0247 17.3973 26.8701 17.2545 26.7236C17.1783 26.6459 17.0999 26.5708 17.0194 26.4976C16.882 26.3728 16.7385 26.2552 16.5887 26.1449C16.4891 26.0717 16.3868 26.0022 16.2825 25.9355C16.1331 25.8407 15.9789 25.7528 15.8199 25.6722C15.7097 25.6166 15.5973 25.5653 15.4834 25.5173C15.311 25.4444 15.1341 25.3803 14.9528 25.3255C14.8502 25.2943 14.7462 25.2672 14.6415 25.2419C14.436 25.1933 14.2266 25.1559 14.0127 25.1314C13.9226 25.1211 13.8322 25.1135 13.7414 25.1076C13.6271 25.1003 13.5136 25.0926 13.3975 25.0926C11.0713 25.0926 9.08428 26.5729 8.32735 28.6416V29.3872H8.11388H4.16456L2.48184 27.8238L0 25.5192V21.6516H2.48184ZM44.5258 17.4237L41.2269 9.09716H35.0156V17.4292H41.9689L44.5258 17.4237Z" fill="white"/>
<path d="M13.3974 26.9759C14.9501 26.9759 16.27 27.9885 16.7332 29.387C16.8479 29.7338 16.9105 30.1044 16.9105 30.4889C16.9105 32.4277 15.3347 34.0035 13.3974 34.0035C11.4606 34.0035 9.88434 32.4277 9.88434 30.4889C9.88434 30.1044 9.94733 29.7339 10.0619 29.387C10.5249 27.9885 11.8451 26.9759 13.3974 26.9759Z" fill="white"/>
<path d="M36.0202 27.2287C36.4252 27.0657 36.8661 26.976 37.3279 26.976C37.7893 26.976 38.2302 27.0657 38.6353 27.2287C39.5896 27.6117 40.3386 28.4045 40.6634 29.3871C40.778 29.7339 40.8406 30.1045 40.8406 30.489C40.8406 32.4278 39.2647 34.0036 37.3279 34.0036C35.3906 34.0036 33.8148 32.4278 33.8148 30.489C33.8148 30.1045 33.8774 29.734 33.9921 29.3871C34.3169 28.4045 35.0658 27.6117 36.0202 27.2287Z" fill="white"/>
<path d="M23.4235 18.934H4.983C3.40209 18.934 2.10824 17.6401 2.10824 16.0592V2.87084C2.10824 1.28994 3.40209 -0.00353241 4.983 -0.00353241H23.4235C25.0045 -0.00353241 26.2984 1.28994 26.2984 2.87084V16.0592C26.2984 17.6401 25.0045 18.934 23.4235 18.934Z" fill="white"/>
</svg>
