<svg width="49" height="44" viewBox="0 0 49 44" fill="none" xmlns="http://www.w3.org/2000/svg">
<path d="M13.6473 27.6512L11.8924 28.0412C11.3672 28.1613 11.0073 28.6263 11.0073 29.1438C11.0073 29.2262 11.0223 29.3087 11.0373 29.391C11.1725 29.9986 11.78 30.3813 12.3875 30.2462L14.1423 29.8562C14.6075 29.7513 14.9374 29.3763 15.0125 28.9337L20.6375 26.8338V25.7238L20.5247 25.6712L14.6148 27.8838C14.3522 27.6662 13.9999 27.5688 13.6473 27.6512Z" fill="white"/>
<path d="M27.0348 33.1861V33.1711L25.9021 33.2161C25.7747 33.2238 25.6473 33.2238 25.5271 33.2238C25.2071 33.2238 24.8889 33.1886 24.5853 33.1267C24.5604 33.1202 24.5323 33.1183 24.5077 33.1113V33.1139C24.5025 33.1125 24.4974 33.1125 24.4922 33.1113V35.6012L21.2337 37.46L15.6197 40.6325V33.2838L15.6204 32.9912H15.6197V32.9762L9.31242 33.201C9.25232 33.2087 9.20001 33.2087 9.14723 33.2087C8.27704 33.2087 7.54982 32.5037 7.54982 31.6035V27.7262L3.10992 25.7762L3.49223 23.9762L4.61723 18.8464H4.62492C4.73001 17.7962 4.97723 16.7839 5.33723 15.8388C5.33723 15.8314 5.33723 15.8314 5.33723 15.8314C5.96742 14.1813 6.95742 12.7036 8.20242 11.4963C8.23251 11.4739 8.25473 11.4512 8.27714 11.4212C8.40492 11.3013 8.53973 11.1889 8.67482 11.0762C8.77223 10.9864 8.86964 10.9037 8.96742 10.8213C9.04251 10.7539 9.12492 10.7012 9.20732 10.6412C9.36473 10.5138 9.52992 10.3863 9.69473 10.2738C9.73242 10.2438 9.77704 10.2215 9.81483 10.1988C10.0246 10.0563 10.2349 9.92116 10.4524 9.79375C10.4747 9.77866 10.4975 9.76366 10.5198 9.75644C10.7523 9.62125 10.9921 9.49384 11.2325 9.37375C11.2848 9.34413 11.3449 9.32144 11.3973 9.29903C11.6075 9.20125 11.81 9.10385 12.0271 9.01375C12.2073 8.94644 12.3948 8.87894 12.5896 8.81125C12.6724 8.78163 12.7548 8.75153 12.8372 8.72153C13.9849 8.35384 15.2 8.15903 16.4674 8.15903C17.1123 8.15903 17.7422 8.21134 18.3647 8.30884L18.4174 8.16634L18.4397 8.14403C18.7229 7.47897 19.0484 6.84138 19.4109 6.22281C19.4604 6.14266 19.5029 6.05435 19.5541 5.97597C19.5526 5.9756 19.5509 5.97559 19.5494 5.97531C19.5523 5.97091 19.5545 5.96575 19.557 5.96134C18.5598 5.73653 17.5245 5.62366 16.4672 5.62366C10.677 5.62366 5.39704 9.14885 3.15473 14.4512L3.13973 14.4738L2.95954 14.9313C2.95223 14.9689 2.93723 15.0063 2.92223 15.0437L2.80204 15.3663V15.3886C2.50945 16.2287 2.30695 17.0911 2.17945 17.9763L2.16445 17.9986L2.09714 18.3063L0.627137 25.2514L0.200012 27.2689L2.08964 28.1012L5.00732 29.3838V31.6037C5.00732 33.891 6.86723 35.7513 9.14733 35.7513C9.25242 35.7513 9.35751 35.7437 9.46223 35.7363L12.9646 35.6086H13.0774V43.1763H16.3323L16.9175 42.8463L25.7523 37.8062L27.0348 37.0712V33.3233L27.0352 33.186H27.0348V33.1861Z" fill="white"/>
<path d="M46.8373 8.68403C46.8348 8.67887 46.8329 8.67297 46.8304 8.66753C46.7535 8.50675 46.6641 8.35365 46.5814 8.19662C44.5987 4.39862 40.9315 1.60553 36.4472 0.867248L36.4476 0.872029C36.4424 0.871279 36.4377 0.869404 36.4322 0.868748L37.2225 8.1025L37.3964 9.72625C37.3375 9.71894 37.2712 9.71893 37.2122 9.71893C36.2912 9.71893 35.4449 10.0049 34.73 10.4781C34.6528 10.5272 34.5715 10.5675 34.4964 10.6213L32.1948 0.823654C29.9525 1.13134 27.875 1.97865 26.105 3.22384C24.6797 4.22144 23.4423 5.48884 22.4748 6.93615C22.0024 7.64106 21.5974 8.39106 21.2597 9.17115C21.185 9.35865 21.1099 9.54615 21.0349 9.73365C20.78 10.3939 20.5848 11.0762 20.4351 11.7815C20.3857 11.9954 20.3546 12.2151 20.3131 12.433C20.2695 12.6549 20.2259 12.8911 20.1817 13.1372C20.1748 13.1801 20.1642 13.2233 20.1575 13.2661H20.1498C20.1498 13.2661 20.1498 13.2661 20.1425 13.2661L18.4023 21.4637L20.99 22.6037L22.115 23.0989L23.6375 23.7661V28.3338C23.6375 29.0014 23.9825 29.5786 24.4922 29.9089C24.7925 30.1114 25.1449 30.2238 25.5271 30.2238C25.5872 30.2238 25.6549 30.2238 25.7223 30.2162L27.0348 30.1712L32.9074 29.9613L33.1549 29.9463V38.9489L33.1546 38.9763H33.1549V38.9913H33.2073L43.6249 33.0437V25.0862C43.7747 24.9438 43.9248 24.8087 44.0672 24.6662C46.6172 22.1236 48.2 18.6062 48.2 14.7214C48.2 12.5593 47.7097 10.5128 46.8373 8.68403ZM37.7747 16.4612V17.6086V18.7486V22.8662L30.6724 25.5213C30.5973 25.9637 30.2673 26.3387 29.8022 26.4438L29.3822 26.5412L28.0396 26.8411C27.4771 26.9689 26.9146 26.6312 26.7271 26.0987C26.7121 26.0611 26.6971 26.0237 26.6898 25.9863C26.6748 25.9036 26.6598 25.8212 26.6598 25.7462C26.6598 25.2587 26.9825 24.8163 27.4471 24.6662C27.4771 24.6512 27.5148 24.6438 27.5449 24.6362L29.3071 24.2388C29.5536 24.1839 29.7949 24.215 30.007 24.3103C30.056 24.3333 30.104 24.3623 30.1515 24.3938C30.1772 24.4102 30.2053 24.4227 30.2299 24.4413C30.2299 24.4636 30.2222 24.4787 30.2145 24.4937L30.2672 24.4714L36.6495 22.0862V18.7486V17.6086V16.4612C35.6597 16.2137 34.9247 15.3139 34.9247 14.2486C34.9247 13.9112 34.9998 13.5963 35.1272 13.3111C35.4872 12.516 36.2895 11.9689 37.212 11.9689C37.3622 11.9689 37.5046 11.9836 37.6471 12.0136C38.697 12.2161 39.492 13.1386 39.492 14.2486C39.4922 15.3139 38.7649 16.2137 37.7747 16.4612Z" fill="white"/>
</svg>
