<svg width="48" height="49" viewBox="0 0 48 49" fill="none" xmlns="http://www.w3.org/2000/svg">
<path d="M42.1619 20.4039V20.3827L36.4453 26.0997V42.5784C36.4453 42.6568 36.3735 42.7286 36.2951 42.7286H5.874C5.79525 42.7286 5.71697 42.6568 5.71697 42.5784V12.1501C5.71697 12.0718 5.79525 12 5.874 12H22.5673L25.9123 8.65541L28.2843 6.29844H28.2693L28.2843 6.28307H5.874C2.63672 6.28316 0 8.91322 0 12.1501V42.5782C0 45.8152 2.63672 48.4453 5.874 48.4453H36.2951C39.5321 48.4453 42.1618 45.8152 42.1618 42.5782V29.5445L42.1725 20.3933L42.1619 20.4039Z" fill="white"/>
<path d="M44.3797 4.17303C41.9084 1.70188 39.4772 0.127908 38.9483 0.657033C38.9301 0.675033 38.9158 0.693315 38.9011 0.715346L35.0189 4.59753L34.5315 5.08241C34.5315 5.08241 34.5323 5.08353 34.5329 5.08353L34.5219 5.0945C36.2911 6.47291 37.9507 7.97956 39.2621 9.29094C40.5717 10.6003 42.0797 12.2621 43.4586 14.0308L47.8373 9.65207C47.8612 9.63922 47.8794 9.6246 47.8977 9.60632C48.4267 9.07738 46.8508 6.64419 44.3797 4.17303Z" fill="white"/>
<path d="M11.6884 36.8647L23.6561 33.8336L41.4452 16.0441C40.3583 14.6144 38.9777 13.0185 37.2562 11.297C35.5343 9.57538 33.9368 8.19669 32.5086 7.10788L14.7195 24.8969L11.6884 36.8647ZM16.3701 25.4349C16.3407 26.1718 16.6 26.9049 17.1489 27.4538C18.1058 28.4107 19.6201 28.48 20.7356 27.6926C20.859 27.6098 20.9773 27.5175 21.0905 27.4168C20.0127 28.5443 19.9841 30.289 21.0443 31.3496C21.5882 31.893 22.31 32.1384 23.0365 32.116C23.0801 32.1167 23.1248 32.1193 23.1728 32.1281L22.8644 32.4365L16.4686 34.0577L14.4952 32.0846L16.1168 25.6884L16.3701 25.4349Z" fill="white"/>
</svg>
