<svg width="90" height="47" viewBox="0 0 90 47" fill="none" xmlns="http://www.w3.org/2000/svg">
<g filter="url(#filter0_d_7_226)">
<path d="M6.80021 44.0024L6.44343 43.916L6.04061 43.2051C5.98878 39.8422 5.75081 36.5393 5.32672 33.2963C4.89757 30.0345 4.51929 26.6985 4.19187 23.2881L5.03121 22.9115C5.37856 23.0004 5.58003 23.1487 5.63564 23.3562C5.68619 23.5448 5.71652 23.658 5.72663 23.6958L5.61344 23.7261L6.21678 23.2611L9.15983 22.4725C9.57623 22.4419 10.0002 22.4395 10.4318 22.4654C10.8772 22.4673 11.2919 22.6191 11.676 22.9206C12.5183 23.4228 13.1431 24.0945 13.5505 24.9357C13.9767 25.7719 14.2835 26.6905 14.4709 27.6918C14.4464 28.2039 14.3979 28.7021 14.3255 29.1866C14.2669 29.6471 14.1304 30.1185 13.9158 30.6006C13.1751 31.9112 12.1508 32.8428 10.8431 33.3954C9.53528 33.948 8.29538 34.4521 7.12335 34.9077C7.30742 36.2738 7.46639 37.6972 7.60026 39.1778C7.73414 40.6585 7.70512 42.1727 7.51323 43.7204L6.80021 44.0024ZM11.1992 31.3285L11.9227 30.4067C12.0811 30.243 12.2325 30.0912 12.377 29.9514C12.5165 29.7927 12.6081 29.6064 12.6518 29.3924C12.8085 28.845 12.8537 28.297 12.7876 27.7485C12.7165 27.1812 12.5837 26.6102 12.3893 26.0354C12.1649 25.6507 11.9078 25.295 11.618 24.9682C11.3283 24.6415 10.9612 24.3657 10.5168 24.1411C10.3406 24.0872 10.1437 24.0692 9.92607 24.0871C9.72731 24.0999 9.52348 24.0938 9.31461 24.0689L6.96582 24.6983C6.83006 24.7953 6.68302 24.9257 6.52469 25.0894C6.36636 25.2532 6.24003 25.3477 6.14571 25.373C6.29438 26.607 6.39472 27.9248 6.44672 29.3263C6.49873 30.7277 6.65129 32.0517 6.9044 33.2982L7.10249 33.2451C7.78906 32.9399 8.49702 32.6389 9.22638 32.3424C9.95573 32.0459 10.6133 31.7079 11.1992 31.3285ZM25.3242 38.766C24.7605 38.7755 24.2144 38.6994 23.6858 38.5377C23.1521 38.3572 22.6392 38.1408 22.147 37.8885L21.6785 37.4984L21.537 37.5363C21.0821 36.9707 20.682 36.4207 20.3367 35.8864C19.9913 35.3522 19.7603 34.7165 19.6437 33.9793C19.5496 33.1755 19.5034 32.3993 19.505 31.6507C19.5204 30.8782 19.6284 30.1113 19.8287 29.3499L20.094 28.6419L20.5533 27.6392L20.6382 27.6165L20.7584 27.1596L20.8716 27.1293L20.9524 26.865C21.4513 26.3876 21.9629 25.9573 22.487 25.5742C23.0062 25.1723 23.6002 24.8614 24.2693 24.6417C24.8076 24.5379 25.3216 24.5316 25.8111 24.6229C26.2956 24.6953 26.7738 24.8199 27.2458 24.9967C27.7859 25.2766 28.2512 25.617 28.6417 26.0179C29.0321 26.4188 29.341 26.8921 29.5681 27.4378L30.5159 30.9751L30.3744 31.0131C30.4974 31.8496 30.4173 32.7203 30.1341 33.6252C29.8458 34.5113 29.4461 35.3968 28.9351 36.2819C28.4666 36.8725 27.952 37.4047 27.3914 37.8784C26.8258 38.3333 26.1367 38.6291 25.3242 38.766ZM26.4595 36.551L27.4453 35.5892L27.4509 35.4967L27.7899 34.9509L27.8748 34.9282L28.091 34.2636L28.2457 34.1615C28.4312 33.6467 28.5715 33.1138 28.6665 32.5626C28.7752 31.9875 28.8343 31.4156 28.8437 30.8469L28.1082 28.102C27.9997 27.848 27.844 27.6066 27.6412 27.3778C27.4572 27.1441 27.2834 26.948 27.1196 26.7897L27.063 26.8048L26.5248 26.4941L26.5324 26.5224L26.4192 26.5527L26.3661 26.3546C26.0905 26.3072 25.7678 26.2723 25.3979 26.2501C25.0418 26.204 24.6983 26.205 24.3675 26.2532C23.9551 26.5255 23.5359 26.8097 23.1097 27.1059C22.6785 27.3832 22.3412 27.7465 22.0976 28.196C21.5365 29.1956 21.2106 30.2434 21.1201 31.3393C21.0433 32.4113 21.1566 33.5133 21.4599 34.6452C21.712 34.9821 21.9502 35.3429 22.1746 35.7276C22.4179 36.1073 22.7592 36.4 23.1985 36.6058C23.6051 36.8406 24.0249 37.0112 24.4579 37.1176C24.9046 37.2001 25.3304 37.1669 25.7354 37.018L26.4595 36.551ZM39.0035 34.9186L38.675 34.8247C38.5113 34.6663 38.4092 34.5117 38.3687 34.3608C38.3283 34.2099 38.2904 34.0684 38.255 33.9363C38.2097 31.8051 38.1763 29.6808 38.1549 27.5634C38.1335 25.446 38.0309 23.2897 37.8471 21.0945L38.6864 20.718C39.0867 20.8534 39.3127 21.0557 39.3646 21.3248C39.4166 21.594 39.4754 21.8512 39.5411 22.0965C39.7323 24.1684 39.8216 26.2373 39.8089 28.3031C39.8152 30.3639 39.7844 32.4751 39.7165 34.6366L39.0035 34.9186ZM38.4699 17.9856L37.8999 17.8957L37.7412 17.7562L37.3561 17.6774C37.1974 17.538 37.0695 17.4004 36.9725 17.2646C36.8943 17.1238 36.8249 16.9402 36.7643 16.7138L36.8334 16.1796C36.9904 15.9354 37.1839 15.7521 37.414 15.6298C37.6391 15.4886 37.9076 15.3964 38.2195 15.3533L38.922 15.711L39.3991 17.039L39.0829 17.6697L38.4699 17.9856ZM50.4927 31.8401L50.1284 31.7254L49.6952 30.9012C49.5293 28.9237 49.3778 26.9624 49.2409 25.0176C49.104 23.0727 48.852 21.1889 48.4849 19.3664L48.3207 19.3194L47.9593 18.5366L48.0533 18.2081C48.2116 18.0444 48.3662 17.9423 48.5171 17.9019C48.6681 17.8614 48.8284 17.8185 48.9982 17.773L49.7138 18.0665L50.1723 19.5512L50.1667 19.6436L49.8555 19.7271L49.9929 19.4476L50.4188 18.9998L50.4375 18.8432C50.8933 18.0538 51.4732 17.4636 52.1773 17.0728C52.8952 16.658 53.7032 16.3909 54.6013 16.2716C54.8857 16.2763 55.1939 16.2948 55.5261 16.3271C55.8721 16.3355 56.1988 16.4603 56.506 16.7015C56.8285 16.9993 57.1113 17.338 57.3546 17.7177C57.6167 18.0923 57.8625 18.4814 58.092 18.8849L58.9412 22.0544C58.9275 23.2106 58.9968 24.3749 59.1492 25.5473C59.2965 26.7008 59.3735 27.8934 59.38 29.1251L58.667 29.4072L58.3385 29.3132C58.1747 29.1549 58.0726 29.0003 58.0322 28.8493C57.9918 28.6984 57.9564 28.5663 57.926 28.4531C57.7235 27.3953 57.5826 26.3412 57.5033 25.2907C57.424 24.2403 57.3738 23.2225 57.3524 22.2375L56.6397 19.5774C56.4405 19.287 56.2509 18.9941 56.0706 18.6987C55.9041 18.3793 55.7032 18.1197 55.4676 17.92C55.153 17.8021 54.7812 17.8107 54.3524 17.9458C53.9235 18.081 53.4921 18.2067 53.0582 18.3229C52.5856 18.672 52.181 19.1241 51.8445 19.6794C51.5029 20.2157 51.1708 20.7496 50.8481 21.2809C50.733 22.8889 50.7658 24.5584 50.9465 26.2894C51.1222 28.0014 51.2086 29.7577 51.2057 31.5581L50.4927 31.8401ZM71.7111 26.2456C71.194 26.2022 70.7222 26.177 70.2957 26.1699C69.888 26.1579 69.4394 26.1062 68.9499 26.0149L68.9423 25.9866L68.9706 25.979L68.6477 25.7926C68.1528 25.3793 67.7025 24.9439 67.2968 24.4864C66.9049 24.005 66.6344 23.4102 66.4851 22.7021C66.3829 21.4152 66.3304 20.125 66.3276 18.8317C66.3248 17.5383 66.3001 16.352 66.2535 15.2726L66.2818 15.265C65.736 15.4921 65.1827 15.6909 64.6218 15.8614C64.0609 16.0319 63.5176 16.2685 62.9921 16.5711L62.3655 16.4963L61.9965 15.6853L62.1112 15.3209C62.8001 14.8735 63.5262 14.5272 64.2896 14.2822C65.0719 14.0322 65.7787 13.8024 66.41 13.5928C66.4106 13.0669 66.4363 12.4837 66.4872 11.8433C66.538 11.2028 66.5359 10.5159 66.4809 9.78248L67.3203 9.40593C67.6676 9.49484 67.8767 9.67135 67.9474 9.93547C68.0132 10.1807 68.0738 10.4071 68.1294 10.6146C68.1803 11.1065 68.174 11.5733 68.1103 12.0149C68.0467 12.4566 68.022 12.8171 68.0361 13.0964L71.2905 12.2244L72.0116 12.4255L72.2578 13.1178C72.1763 13.3418 72.0607 13.5143 71.9112 13.6353C71.7805 13.7512 71.6113 13.8369 71.4038 13.8925L71.3321 13.8511L67.9079 14.7686C67.9195 16.0191 67.9299 17.3408 67.9391 18.7335C67.9672 20.1212 68.0424 21.4962 68.1648 22.8586C68.34 23.1352 68.558 23.4205 68.8188 23.7146C69.0796 24.0087 69.3397 24.2625 69.5991 24.4761C69.9654 24.56 70.3215 24.6061 70.6674 24.6145C71.0273 24.5989 71.3871 24.5834 71.7469 24.5679C72.1606 24.3762 72.5446 24.1115 72.899 23.7739C73.2534 23.4363 73.6984 23.1351 74.234 22.8702C74.5335 22.9315 74.7205 23.0634 74.795 23.2659C74.8833 23.4444 74.9577 23.6469 75.0184 23.8733C74.5687 24.4588 74.0912 24.9406 73.5859 25.3187C73.0755 25.6778 72.4669 25.9723 71.7601 26.2022L71.7111 26.2456ZM77.7842 10.0469C77.6376 10.2726 77.4336 10.3997 77.1721 10.4284C76.9054 10.4377 76.683 10.342 76.505 10.1412C76.2973 9.90699 76.181 9.62756 76.1562 9.30294C76.1313 8.97831 76.2063 8.67869 76.3812 8.40407L80.1655 2.35863C80.6053 1.68174 81.2115 1.23977 81.9843 1.03271C82.2934 0.949891 82.5949 0.993332 82.8888 1.16304C83.1828 1.33274 83.3711 1.57214 83.454 1.88124L88.5009 20.7168C88.5838 21.0259 88.5403 21.3274 88.3706 21.6213C88.2009 21.9153 87.9518 22.1063 87.6234 22.1943C87.3143 22.2771 87.0128 22.2336 86.7189 22.0639C86.4443 21.889 86.2655 21.6471 86.1827 21.338L81.5783 4.15414C81.5731 4.13482 81.5609 4.12775 81.5416 4.13293L81.4914 4.17743L77.7842 10.0469Z" fill="black"/>
</g>
<defs>
<filter id="filter0_d_7_226" x="0.584778" y="0.722107" width="89.2646" height="45.4168" filterUnits="userSpaceOnUse" color-interpolation-filters="sRGB">
<feFlood flood-opacity="0" result="BackgroundImageFix"/>
<feColorMatrix in="SourceAlpha" type="matrix" values="0 0 0 0 0 0 0 0 0 0 0 0 0 0 0 0 0 0 127 0" result="hardAlpha"/>
<feOffset dx="1" dy="2"/>
<feComposite in2="hardAlpha" operator="out"/>
<feColorMatrix type="matrix" values="0 0 0 0 1 0 0 0 0 1 0 0 0 0 1 0 0 0 1 0"/>
<feBlend mode="normal" in2="BackgroundImageFix" result="effect1_dropShadow_7_226"/>
<feBlend mode="normal" in="SourceGraphic" in2="effect1_dropShadow_7_226" result="shape"/>
</filter>
</defs>
</svg>
