<svg width="161" height="41" viewBox="0 0 161 41" fill="none" xmlns="http://www.w3.org/2000/svg">
<path d="M8.58275 29.0001L1.0517 11.1518H5.10688L11.4793 26.9587L10.2931 26.9863L16.3621 11.1518H20.5828L26.6518 26.9863L25.4655 26.9587L31.838 11.1518H35.8104L28.3621 29.0001H23.8655L17.9069 13.5242H19.0655L13.0793 29.0001H8.58275ZM48.7063 24.4484H52.1821C52.035 25.3863 51.6396 26.2231 50.9959 26.9587C50.3706 27.6944 49.5155 28.2737 48.4304 28.6967C47.3453 29.1196 46.0212 29.3311 44.458 29.3311C42.7109 29.3311 41.166 29.0553 39.8235 28.5035C38.481 27.9334 37.4327 27.115 36.6787 26.0484C35.9246 24.9817 35.5476 23.6943 35.5476 22.1863C35.5476 20.6783 35.9154 19.3909 36.6511 18.3242C37.3867 17.2392 38.4074 16.4116 39.7132 15.8415C41.0373 15.2713 42.5821 14.9863 44.3476 14.9863C46.1499 14.9863 47.6488 15.2713 48.8442 15.8415C50.0396 16.4116 50.9224 17.2759 51.4925 18.4346C52.081 19.5748 52.3293 21.0369 52.2373 22.8208H39.1614C39.2534 23.5196 39.5109 24.1541 39.9338 24.7242C40.3752 25.2943 40.9637 25.7449 41.6994 26.076C42.4534 26.407 43.3453 26.5725 44.3752 26.5725C45.5155 26.5725 46.4626 26.3794 47.2166 25.9932C47.989 25.5886 48.4856 25.0737 48.7063 24.4484ZM44.1821 17.7173C42.858 17.7173 41.7821 18.0116 40.9545 18.6001C40.1269 19.1702 39.5936 19.8782 39.3545 20.7242H48.6787C48.5867 19.8047 48.1453 19.0782 47.3545 18.5449C46.5821 17.9932 45.5247 17.7173 44.1821 17.7173ZM55.1845 9.77246H58.7707V29.0001H55.1845V9.77246ZM62.6765 9.77246H66.2627V29.0001H62.6765V9.77246ZM80.4581 29.3035C79.2443 29.3035 78.2052 29.0921 77.3409 28.6691C76.4765 28.2277 75.7777 27.6576 75.2443 26.9587C74.711 26.2415 74.3156 25.4691 74.0581 24.6415C73.8006 23.7955 73.6719 22.9679 73.6719 22.1587C73.6719 21.1472 73.7914 20.2093 74.0305 19.3449C74.288 18.4805 74.6834 17.7265 75.2167 17.0828C75.7501 16.4208 76.4489 15.9058 77.3133 15.538C78.1777 15.1702 79.2259 14.9863 80.4581 14.9863C81.8742 14.9863 83.1248 15.2897 84.2098 15.8966C85.3133 16.4851 86.1777 17.3127 86.803 18.3794C87.4466 19.4461 87.7685 20.7058 87.7685 22.1587C87.7685 23.5748 87.4466 24.8254 86.803 25.9104C86.1593 26.9771 85.2857 27.8139 84.1823 28.4208C83.0788 29.0093 81.8374 29.3035 80.4581 29.3035ZM79.2995 26.5449C80.2742 26.5449 81.1202 26.361 81.8374 25.9932C82.5547 25.6254 83.1064 25.1196 83.4926 24.476C83.8972 23.8139 84.0995 23.0415 84.0995 22.1587C84.0995 20.8346 83.6765 19.7679 82.8305 18.9587C82.0029 18.1495 80.8259 17.7449 79.2995 17.7449C78.2328 17.7449 77.3041 17.9196 76.5133 18.2691C75.7225 18.6185 75.1064 19.1242 74.665 19.7863C74.242 20.43 74.0305 21.2208 74.0305 22.1587C74.0305 23.0231 74.242 23.7863 74.665 24.4484C75.088 25.1104 75.6949 25.6254 76.4857 25.9932C77.2765 26.361 78.2144 26.5449 79.2995 26.5449ZM74.0305 9.77246V25.4691C74.0305 26.0576 74.0029 26.6921 73.9478 27.3725C73.8926 28.0346 73.8374 28.5771 73.7822 29.0001H70.4443V9.77246H74.0305ZM102.92 24.4484H106.396C106.249 25.3863 105.853 26.2231 105.21 26.9587C104.584 27.6944 103.729 28.2737 102.644 28.6967C101.559 29.1196 100.235 29.3311 98.6717 29.3311C96.9245 29.3311 95.3797 29.0553 94.0372 28.5035C92.6947 27.9334 91.6464 27.115 90.8924 26.0484C90.1383 24.9817 89.7613 23.6943 89.7613 22.1863C89.7613 20.6783 90.1291 19.3909 90.8648 18.3242C91.6004 17.2392 92.6211 16.4116 93.9268 15.8415C95.251 15.2713 96.7958 14.9863 98.5613 14.9863C100.364 14.9863 101.862 15.2713 103.058 15.8415C104.253 16.4116 105.136 17.2759 105.706 18.4346C106.295 19.5748 106.543 21.0369 106.451 22.8208H93.3751C93.4671 23.5196 93.7245 24.1541 94.1475 24.7242C94.5889 25.2943 95.1774 25.7449 95.913 26.076C96.6671 26.407 97.559 26.5725 98.5889 26.5725C99.7291 26.5725 100.676 26.3794 101.43 25.9932C102.203 25.5886 102.699 25.0737 102.92 24.4484ZM98.3958 17.7173C97.0717 17.7173 95.9958 18.0116 95.1682 18.6001C94.3406 19.1702 93.8073 19.8782 93.5682 20.7242H102.892C102.8 19.8047 102.359 19.0782 101.568 18.5449C100.796 17.9932 99.7383 17.7173 98.3958 17.7173ZM121.619 24.4484H125.095C124.948 25.3863 124.552 26.2231 123.909 26.9587C123.283 27.6944 122.428 28.2737 121.343 28.6967C120.258 29.1196 118.934 29.3311 117.371 29.3311C115.623 29.3311 114.079 29.0553 112.736 28.5035C111.394 27.9334 110.345 27.115 109.591 26.0484C108.837 24.9817 108.46 23.6943 108.46 22.1863C108.46 20.6783 108.828 19.3909 109.564 18.3242C110.299 17.2392 111.32 16.4116 112.626 15.8415C113.95 15.2713 115.495 14.9863 117.26 14.9863C119.063 14.9863 120.561 15.2713 121.757 15.8415C122.952 16.4116 123.835 17.2759 124.405 18.4346C124.994 19.5748 125.242 21.0369 125.15 22.8208H112.074C112.166 23.5196 112.423 24.1541 112.846 24.7242C113.288 25.2943 113.876 25.7449 114.612 26.076C115.366 26.407 116.258 26.5725 117.288 26.5725C118.428 26.5725 119.375 26.3794 120.129 25.9932C120.902 25.5886 121.398 25.0737 121.619 24.4484ZM117.095 17.7173C115.771 17.7173 114.695 18.0116 113.867 18.6001C113.04 19.1702 112.506 19.8782 112.267 20.7242H121.591C121.499 19.8047 121.058 19.0782 120.267 18.5449C119.495 17.9932 118.437 17.7173 117.095 17.7173Z" fill="#414141"/>
<path d="M128.601 24.2974C129.395 24.2974 130.038 23.6541 130.038 22.8606C130.038 22.0671 129.395 21.4238 128.601 21.4238C127.808 21.4238 127.164 22.0671 127.164 22.8606C127.164 23.6541 127.808 24.2974 128.601 24.2974Z" fill="#414141"/>
<path d="M134.347 20.2754C135.141 20.2754 135.784 19.6321 135.784 18.8386C135.784 18.0451 135.141 17.4019 134.347 17.4019C133.553 17.4019 132.91 18.0451 132.91 18.8386C132.91 19.6321 133.553 20.2754 134.347 20.2754Z" fill="#414141"/>
<path d="M141.243 19.125C142.037 19.125 142.68 18.4818 142.68 17.6882C142.68 16.8947 142.037 16.2515 141.243 16.2515C140.449 16.2515 139.806 16.8947 139.806 17.6882C139.806 18.4818 140.449 19.125 141.243 19.125Z" fill="#414141"/>
<path d="M147.566 21.9995C148.359 21.9995 149.003 21.3563 149.003 20.5628C149.003 19.7692 148.359 19.126 147.566 19.126C146.772 19.126 146.129 19.7692 146.129 20.5628C146.129 21.3563 146.772 21.9995 147.566 21.9995Z" fill="#414141"/>
<path d="M152.74 24.8716C153.534 24.8716 154.177 24.2283 154.177 23.4348C154.177 22.6413 153.534 21.998 152.74 21.998C151.946 21.998 151.303 22.6413 151.303 23.4348C151.303 24.2283 151.946 24.8716 152.74 24.8716Z" fill="#414141"/>
<path d="M159.062 24.2974C159.856 24.2974 160.499 23.6541 160.499 22.8606C160.499 22.0671 159.856 21.4238 159.062 21.4238C158.269 21.4238 157.625 22.0671 157.625 22.8606C157.625 23.6541 158.269 24.2974 159.062 24.2974Z" fill="#414141"/>
</svg>
