<svg width="94" height="48" viewBox="0 0 94 48" fill="none" xmlns="http://www.w3.org/2000/svg">
<g filter="url(#filter0_d_7_211)">
<path d="M6.80021 45.0024L6.44343 44.916L6.04061 44.2051C5.98878 40.8422 5.75081 37.5393 5.32672 34.2963C4.89757 31.0345 4.51929 27.6985 4.19187 24.2881L5.03121 23.9115C5.37856 24.0004 5.58003 24.1487 5.63564 24.3562C5.68619 24.5448 5.71652 24.658 5.72663 24.6958L5.61344 24.7261L6.21678 24.2611L9.15983 23.4725C9.57623 23.4419 10.0002 23.4395 10.4318 23.4654C10.8772 23.4673 11.2919 23.6191 11.676 23.9206C12.5183 24.4228 13.1431 25.0945 13.5505 25.9357C13.9767 26.7719 14.2835 27.6905 14.4709 28.6918C14.4464 29.2039 14.3979 29.7021 14.3255 30.1866C14.2669 30.6471 14.1304 31.1185 13.9158 31.6006C13.1751 32.9112 12.1508 33.8428 10.8431 34.3954C9.53528 34.948 8.29538 35.4521 7.12335 35.9077C7.30742 37.2738 7.46639 38.6972 7.60026 40.1778C7.73414 41.6585 7.70512 43.1727 7.51323 44.7204L6.80021 45.0024ZM11.1992 32.3285L11.9227 31.4067C12.0811 31.243 12.2325 31.0912 12.377 30.9514C12.5165 30.7927 12.6081 30.6064 12.6518 30.3924C12.8085 29.845 12.8537 29.297 12.7876 28.7485C12.7165 28.1812 12.5837 27.6102 12.3893 27.0354C12.1649 26.6507 11.9078 26.295 11.618 25.9682C11.3283 25.6415 10.9612 25.3657 10.5168 25.1411C10.3406 25.0872 10.1437 25.0692 9.92607 25.0871C9.72731 25.0999 9.52348 25.0938 9.31461 25.0689L6.96582 25.6983C6.83006 25.7953 6.68302 25.9257 6.52469 26.0894C6.36636 26.2532 6.24003 26.3477 6.14571 26.373C6.29438 27.607 6.39472 28.9248 6.44672 30.3263C6.49873 31.7277 6.65129 33.0517 6.9044 34.2982L7.10249 34.2451C7.78906 33.9399 8.49702 33.6389 9.22638 33.3424C9.95573 33.0459 10.6133 32.7079 11.1992 32.3285ZM25.3242 39.766C24.7605 39.7755 24.2144 39.6994 23.6858 39.5377C23.1521 39.3572 22.6392 39.1408 22.147 38.8885L21.6785 38.4984L21.537 38.5363C21.0821 37.9707 20.682 37.4207 20.3367 36.8864C19.9913 36.3522 19.7603 35.7165 19.6437 34.9793C19.5496 34.1755 19.5034 33.3993 19.505 32.6507C19.5204 31.8782 19.6284 31.1113 19.8287 30.3499L20.094 29.6419L20.5533 28.6392L20.6382 28.6165L20.7584 28.1596L20.8716 28.1293L20.9524 27.865C21.4513 27.3876 21.9629 26.9573 22.487 26.5742C23.0062 26.1723 23.6002 25.8614 24.2693 25.6417C24.8076 25.5379 25.3216 25.5316 25.8111 25.6229C26.2956 25.6953 26.7738 25.8199 27.2458 25.9967C27.7859 26.2766 28.2512 26.617 28.6417 27.0179C29.0321 27.4188 29.341 27.8921 29.5681 28.4378L30.5159 31.9751L30.3744 32.0131C30.4974 32.8496 30.4173 33.7203 30.1341 34.6252C29.8458 35.5113 29.4461 36.3968 28.9351 37.2819C28.4666 37.8725 27.952 38.4047 27.3914 38.8784C26.8258 39.3333 26.1367 39.6291 25.3242 39.766ZM26.4595 37.551L27.4453 36.5892L27.4509 36.4967L27.7899 35.9509L27.8748 35.9282L28.091 35.2636L28.2457 35.1615C28.4312 34.6467 28.5715 34.1138 28.6665 33.5626C28.7752 32.9875 28.8343 32.4156 28.8437 31.8469L28.1082 29.102C27.9997 28.848 27.844 28.6066 27.6412 28.3778C27.4572 28.1441 27.2834 27.948 27.1196 27.7897L27.063 27.8048L26.5248 27.4941L26.5324 27.5224L26.4192 27.5527L26.3661 27.3546C26.0905 27.3072 25.7678 27.2723 25.3979 27.2501C25.0418 27.204 24.6983 27.205 24.3675 27.2532C23.9551 27.5255 23.5359 27.8097 23.1097 28.1059C22.6785 28.3832 22.3412 28.7465 22.0976 29.196C21.5365 30.1956 21.2106 31.2434 21.1201 32.3393C21.0433 33.4113 21.1566 34.5133 21.4599 35.6452C21.712 35.9821 21.9502 36.3429 22.1746 36.7276C22.4179 37.1073 22.7592 37.4 23.1985 37.6058C23.6051 37.8406 24.0249 38.0112 24.4579 38.1176C24.9046 38.2001 25.3304 38.1669 25.7354 38.018L26.4595 37.551ZM39.0035 35.9186L38.675 35.8247C38.5113 35.6663 38.4092 35.5117 38.3687 35.3608C38.3283 35.2099 38.2904 35.0684 38.255 34.9363C38.2097 32.8051 38.1763 30.6808 38.1549 28.5634C38.1335 26.446 38.0309 24.2897 37.8471 22.0945L38.6864 21.718C39.0867 21.8534 39.3127 22.0557 39.3646 22.3248C39.4166 22.594 39.4754 22.8512 39.5411 23.0965C39.7323 25.1684 39.8216 27.2373 39.8089 29.3031C39.8152 31.3639 39.7844 33.4751 39.7165 35.6366L39.0035 35.9186ZM38.4699 18.9856L37.8999 18.8957L37.7412 18.7562L37.3561 18.6774C37.1974 18.538 37.0695 18.4004 36.9725 18.2646C36.8943 18.1238 36.8249 17.9402 36.7643 17.7138L36.8334 17.1796C36.9904 16.9354 37.1839 16.7521 37.414 16.6298C37.6391 16.4886 37.9076 16.3964 38.2195 16.3533L38.922 16.711L39.3991 18.039L39.0829 18.6697L38.4699 18.9856ZM50.4927 32.8401L50.1284 32.7254L49.6952 31.9012C49.5293 29.9237 49.3778 27.9624 49.2409 26.0176C49.104 24.0727 48.852 22.1889 48.4849 20.3664L48.3207 20.3194L47.9593 19.5366L48.0533 19.2081C48.2116 19.0444 48.3662 18.9423 48.5171 18.9019C48.6681 18.8614 48.8284 18.8185 48.9982 18.773L49.7138 19.0665L50.1723 20.5512L50.1667 20.6436L49.8555 20.7271L49.9929 20.4476L50.4188 19.9998L50.4375 19.8432C50.8933 19.0538 51.4732 18.4636 52.1773 18.0728C52.8952 17.658 53.7032 17.3909 54.6013 17.2716C54.8857 17.2763 55.1939 17.2948 55.5261 17.3271C55.8721 17.3355 56.1988 17.4603 56.506 17.7015C56.8285 17.9993 57.1113 18.338 57.3546 18.7177C57.6167 19.0923 57.8625 19.4814 58.092 19.8849L58.9412 23.0544C58.9275 24.2106 58.9968 25.3749 59.1492 26.5473C59.2965 27.7008 59.3735 28.8934 59.38 30.1251L58.667 30.4072L58.3385 30.3132C58.1747 30.1549 58.0726 30.0003 58.0322 29.8493C57.9918 29.6984 57.9564 29.5663 57.926 29.4531C57.7235 28.3953 57.5826 27.3412 57.5033 26.2907C57.424 25.2403 57.3738 24.2225 57.3524 23.2375L56.6397 20.5774C56.4405 20.287 56.2509 19.9941 56.0706 19.6987C55.9041 19.3793 55.7032 19.1197 55.4676 18.92C55.153 18.8021 54.7812 18.8107 54.3524 18.9458C53.9235 19.081 53.4921 19.2067 53.0582 19.3229C52.5856 19.672 52.181 20.1241 51.8445 20.6794C51.5029 21.2157 51.1708 21.7496 50.8481 22.2809C50.733 23.8889 50.7658 25.5584 50.9465 27.2894C51.1222 29.0014 51.2086 30.7577 51.2057 32.5581L50.4927 32.8401ZM71.7111 27.2456C71.194 27.2022 70.7222 27.177 70.2957 27.1699C69.888 27.1579 69.4394 27.1062 68.9499 27.0149L68.9423 26.9866L68.9706 26.979L68.6477 26.7926C68.1528 26.3793 67.7025 25.9439 67.2968 25.4864C66.9049 25.005 66.6344 24.4102 66.4851 23.7021C66.3829 22.4152 66.3304 21.125 66.3276 19.8317C66.3248 18.5383 66.3001 17.352 66.2535 16.2726L66.2818 16.265C65.736 16.4921 65.1827 16.6909 64.6218 16.8614C64.0609 17.0319 63.5176 17.2685 62.9921 17.5711L62.3655 17.4963L61.9965 16.6853L62.1112 16.3209C62.8001 15.8735 63.5262 15.5272 64.2896 15.2822C65.0719 15.0322 65.7787 14.8024 66.41 14.5928C66.4106 14.0669 66.4363 13.4837 66.4872 12.8433C66.538 12.2028 66.5359 11.5159 66.4809 10.7825L67.3203 10.4059C67.6676 10.4948 67.8767 10.6714 67.9474 10.9355C68.0132 11.1807 68.0738 11.4071 68.1294 11.6146C68.1803 12.1065 68.174 12.5733 68.1103 13.0149C68.0467 13.4566 68.022 13.8171 68.0361 14.0964L71.2905 13.2244L72.0116 13.4255L72.2578 14.1178C72.1763 14.3418 72.0607 14.5143 71.9112 14.6353C71.7805 14.7512 71.6113 14.8369 71.4038 14.8925L71.3321 14.8511L67.9079 15.7686C67.9195 17.0191 67.9299 18.3408 67.9391 19.7335C67.9672 21.1212 68.0424 22.4962 68.1648 23.8586C68.34 24.1352 68.558 24.4205 68.8188 24.7146C69.0796 25.0087 69.3397 25.2625 69.5991 25.4761C69.9654 25.56 70.3215 25.6061 70.6674 25.6145C71.0273 25.5989 71.3871 25.5834 71.7469 25.5679C72.1606 25.3762 72.5446 25.1115 72.899 24.7739C73.2534 24.4363 73.6984 24.1351 74.234 23.8702C74.5335 23.9315 74.7205 24.0634 74.795 24.2659C74.8833 24.4444 74.9577 24.6469 75.0184 24.8733C74.5687 25.4588 74.0912 25.9406 73.5859 26.3187C73.0755 26.6778 72.4669 26.9723 71.7601 27.2022L71.7111 27.2456ZM88.6719 6.35924C89.0136 7.63426 89.0647 8.94571 88.8254 10.2936C88.581 11.6221 87.9632 13.2577 86.9723 15.2004C85.9813 17.1431 84.5033 19.5476 82.5382 22.4138C82.5188 22.419 82.5118 22.4312 82.5169 22.4506C82.5221 22.4699 82.5344 22.477 82.5537 22.4718L91.4209 20.0958C91.672 20.0285 91.9201 20.0656 92.165 20.207C92.41 20.3484 92.5687 20.5544 92.6411 20.8248C92.7084 21.076 92.6714 21.324 92.53 21.569C92.3885 21.8139 92.1923 21.97 91.9411 22.0373L80.8426 25.0112C80.5722 25.0836 80.3145 25.0492 80.0695 24.9077C79.8246 24.7663 79.6684 24.57 79.6011 24.3189C79.4252 23.6621 79.5339 23.0635 79.9275 22.5232C81.9506 19.6414 83.4724 17.2459 84.4931 15.3367C85.5279 13.403 86.1637 11.835 86.4006 10.6327C86.6568 9.42526 86.6374 8.27096 86.3423 7.1698C85.9748 5.79819 85.3186 4.85593 84.3736 4.34302C83.4287 3.83011 82.2318 3.76778 80.7829 4.156C79.1794 4.58564 77.679 5.51567 76.2816 6.94608C76.086 7.14343 75.8523 7.23711 75.5805 7.22713C75.3228 7.19266 75.1242 7.06986 74.9848 6.85874C74.7965 6.61934 74.7143 6.35147 74.7384 6.05513C74.7574 5.73947 74.8743 5.48038 75.0892 5.27785C76.6205 3.72876 78.4389 2.6721 80.5447 2.10787C82.6117 1.554 84.3575 1.65562 85.782 2.41273C87.2013 3.15052 88.1646 4.46603 88.6719 6.35924Z" fill="black"/>
</g>
<defs>
<filter id="filter0_d_7_211" x="0.507141" y="0.337524" width="93.4282" height="46.8014" filterUnits="userSpaceOnUse" color-interpolation-filters="sRGB">
<feFlood flood-opacity="0" result="BackgroundImageFix"/>
<feColorMatrix in="SourceAlpha" type="matrix" values="0 0 0 0 0 0 0 0 0 0 0 0 0 0 0 0 0 0 127 0" result="hardAlpha"/>
<feOffset dx="1" dy="2"/>
<feComposite in2="hardAlpha" operator="out"/>
<feColorMatrix type="matrix" values="0 0 0 0 1 0 0 0 0 1 0 0 0 0 1 0 0 0 1 0"/>
<feBlend mode="normal" in2="BackgroundImageFix" result="effect1_dropShadow_7_211"/>
<feBlend mode="normal" in="SourceGraphic" in2="effect1_dropShadow_7_211" result="shape"/>
</filter>
</defs>
</svg>
